<svg width="31.88px" height="32px" viewBox="0 0 1024 1024" class="icon"  version="1.1" xmlns="http://www.w3.org/2000/svg"><path d="M529.302638 141.067848l40.824356 20.315933c6.46174 3.216024 6.46174 8.47777 0 11.69277l-40.824356 20.315933-20.315933 40.824356c-3.216024 6.46174-8.47777 6.46174-11.69277 0l-20.315933-40.824356-40.824355-20.315933c-6.46174-3.216024-6.46174-8.47777 0-11.69277l40.824355-20.315933 20.315933-40.824355c3.216024-6.46174 8.47777-6.46174 11.69277 0l20.315933 40.824355zM774.580511 734.23431c0 14.426544-11.694818 26.121362-26.121362 26.121362H435.174812c-14.426544 0-26.121362-11.694818-26.121362-26.121362V472.143216c0-14.426544 11.694818-26.121362 26.121362-26.121362h313.284337c14.426544 0 26.121362 11.694818 26.121362 26.121362v262.091094z" fill="#E0E0E0" /><path d="M842.71496 497.21612h-29.226807v103.412418h29.226807c14.406067 0 24.01523-7.588014 24.01523-21.991009v-52.241701c0-14.402995-9.609164-29.179708-24.01523-29.179708zM842.71496 641.583951h-29.226807v104.436303h29.226807c14.406067 0 24.01523-9.313261 24.01523-23.716256v-52.241701c0-14.402995-9.609164-28.478346-24.01523-28.478346zM258.542307 693.802102h26.621019v52.218152h-26.621019zM310.760459 693.802102h26.621018v52.218152h-26.621018zM258.542307 458.308477h26.621019v53.242037h-26.621019zM258.542307 576.05529h26.621019v51.194266h-26.621019zM310.760459 576.05529h26.621018v51.194266h-26.621018zM310.760459 458.308477h26.621018v53.242037h-26.621018z" fill="#FFB612" /><path d="M777.411554 379.469307H617.926056V343.547315c0-20.537092-14.509479-37.400483-34.637016-39.021294L688.455373 189.053258c4.839906-5.347753 4.770282-13.609484-0.579519-18.446318-5.350825-4.847073-13.430304-5.784952-18.277377-0.434127L549.584783 301.654023H456.696882L336.509127 170.172813c-4.847073-5.350825-13.098565-5.083591-18.44939-0.243685-5.350825 4.836834-5.765498 13.437471-0.924568 18.785224l102.894332 115.642728c-20.127538 1.62081-37.597069 18.653143-37.597069 39.191259v35.921992H228.868063c-36.005951 0-68.618747 32.554434-68.618747 68.563457v352.635321c0 36.009023 32.612795 62.076119 68.618747 62.07612h15.33985v29.348648c0 21.606028 21.827187 37.203897 43.433215 37.203898h104.484426c21.606028 0 35.357832-15.597869 35.357832-37.203898v-29.348648h145.391716v29.348648c0 21.606028 19.673957 37.203897 41.279985 37.203898h104.484425c21.606028 0 37.511063-15.597869 37.511063-37.203898v-29.348648h21.260979c36.005951 0 62.697618-26.067096 62.697618-62.07612v-352.636345c0-36.009023-26.691667-68.563457-62.697618-68.563457z m-368.358104-35.920968c0-7.203033 8.522821-15.272274 15.722783-15.272274h156.727151c7.199962 0 9.801654 8.06924 9.801654 15.272274v35.921992h-182.251588v-35.921992z m-8.191083 548.543491c0 7.203033-1.536852 10.582879-8.736813 10.582878H287.641128c-7.199962 0-16.812197-3.379845-16.812197-10.582878v-29.348649h130.033436v29.348649z m328.66719 0c0 7.203033-3.690083 10.582879-10.890045 10.582878H614.155087c-7.199962 0-14.658966-3.379845-14.658967-10.582878v-29.348649h130.033437v29.348649z m83.958596-91.423745c0 21.606028-14.470571 35.455101-36.076599 35.455101H228.868063c-21.606028 0-41.997728-13.849073-41.997728-35.455101V448.032764c0-21.606028 20.3917-41.942438 41.997728-41.942438h548.544515c21.606028 0 36.076599 20.33641 36.076599 41.942438v352.635321z" fill="#262626" /><path d="M679.457469 490.479978c-16.204009 0-29.386533 13.1815-29.386533 29.386533s13.1815 29.386533 29.386533 29.386533 29.386533-13.1815 29.386532-29.386533-13.1815-29.386533-29.386532-29.386533zM594.564065 490.479978c-16.205033 0-29.386533 13.1815-29.386533 29.386533s13.1815 29.386533 29.386533 29.386533 29.386533-13.1815 29.386533-29.386533-13.1815-29.386533-29.386533-29.386533zM509.670661 490.479978c-16.205033 0-29.386533 13.1815-29.386533 29.386533s13.1815 29.386533 29.386533 29.386533c16.204009 0 29.386533-13.1815 29.386533-29.386533-0.001024-16.205033-13.182524-29.386533-29.386533-29.386533zM679.457469 575.373382c-16.204009 0-29.386533 13.1815-29.386533 29.386533s13.1815 29.386533 29.386533 29.386533 29.386533-13.1815 29.386532-29.386533-13.1815-29.386533-29.386532-29.386533zM594.564065 575.373382c-16.205033 0-29.386533 13.1815-29.386533 29.386533s13.1815 29.386533 29.386533 29.386533 29.386533-13.1815 29.386533-29.386533-13.1815-29.386533-29.386533-29.386533zM509.670661 575.373382c-16.205033 0-29.386533 13.1815-29.386533 29.386533s13.1815 29.386533 29.386533 29.386533c16.204009 0 29.386533-13.1815 29.386533-29.386533-0.001024-16.205033-13.182524-29.386533-29.386533-29.386533zM679.457469 660.266786c-16.204009 0-29.386533 13.1815-29.386533 29.386533 0 16.204009 13.1815 29.386533 29.386533 29.386533s29.386533-13.1815 29.386532-29.386533-13.1815-29.386533-29.386532-29.386533zM594.564065 660.266786c-16.205033 0-29.386533 13.1815-29.386533 29.386533 0 16.204009 13.1815 29.386533 29.386533 29.386533s29.386533-13.1815 29.386533-29.386533-13.1815-29.386533-29.386533-29.386533zM509.670661 660.266786c-16.205033 0-29.386533 13.1815-29.386533 29.386533 0 16.204009 13.1815 29.386533 29.386533 29.386533 16.204009 0 29.386533-13.1815 29.386533-29.386533-0.001024-16.205033-13.182524-29.386533-29.386533-29.386533zM382.432432 472.143216c0-14.426544-11.694818-26.121362-26.121363-26.121362H238.58883c-14.426544 0-26.121362 11.694818-26.121362 26.121362v26.596445c0 14.426544 11.694818 26.121362 26.121362 26.121363h117.722239c14.426544 0 26.121362-11.694818 26.121363-26.121363v-26.596445z m-143.343946 25.072904v-26.621019h120.385365l0.019454 26.621019H239.088486zM382.432432 705.58907c0-14.426544-11.694818-26.121362-26.121363-26.121362H238.58883c-14.426544 0-26.121362 11.694818-26.121362 26.121362v26.596445c0 14.426544 11.694818 26.121362 26.121362 26.121363h117.722239c14.426544 0 26.121362-11.694818 26.121363-26.121363v-26.596445z m-143.343946 27.120675v-26.621019h120.385365l0.019454 26.621019H239.088486zM382.432432 589.890028c0-14.426544-11.694818-26.121362-26.121363-26.121362H238.58883c-14.426544 0-26.121362 11.694818-26.121362 26.121362v26.596446c0 14.426544 11.694818 26.121362 26.121362 26.121362h117.722239c14.426544 0 26.121362-11.694818 26.121363-26.121362v-26.596446z m-143.343946 25.072904v-24.573248h120.385365l0.019454 24.573248H239.088486z" fill="#262626" /></svg>