<svg width="33" height="33" viewBox="0 0 33 33" fill="none" xmlns="http://www.w3.org/2000/svg">
<g id="Comment">
<path id="Union" fill-rule="evenodd" clip-rule="evenodd" d="M16.5 0C30.0878 0 33 2.4445 33 14.6667C33 22.6112 31.6253 27.5 25.4378 27.5C22.1312 27.5 21.1476 29.0708 20.2317 30.5334C19.4337 31.8078 18.6871 33.0001 16.5003 33C14.3137 32.9999 13.5671 31.8077 12.7691 30.5334C11.8532 29.0707 10.8695 27.5 7.56284 27.5C1.37534 27.5 0 22.4548 0 14.6667C0 2.58867 2.91225 0 16.5 0ZM30.25 14.6667C30.25 8.48101 29.429 6.04877 28.027 4.81299C27.3132 4.18384 26.1996 3.64062 24.2909 3.2734C22.3682 2.9035 19.8475 2.75 16.5 2.75C13.1582 2.75 10.6409 2.91208 8.7225 3.29106C6.81895 3.6671 5.70104 4.21996 4.9816 4.85946C3.56674 6.11711 2.75 8.56518 2.75 14.6667C2.75 18.5314 3.11585 21.164 3.92084 22.7742C4.28747 23.5075 4.70726 23.9471 5.17738 24.2269C5.65864 24.5134 6.39133 24.75 7.56284 24.75C9.53914 24.75 11.145 25.1973 12.4517 26.0827C13.7091 26.9346 14.4429 28.0374 14.9116 28.7749L15.1 29.0719C15.5052 29.7116 15.6394 29.9234 15.8293 30.0938L15.8367 30.1009C15.8766 30.1398 15.9893 30.25 16.5004 30.25C17.0116 30.25 17.1243 30.1398 17.1641 30.101L17.1715 30.0938C17.3614 29.9235 17.4956 29.7116 17.9009 29.0718L18.0891 28.775C18.5577 28.0376 19.2916 26.9347 20.5489 26.0828C21.8557 25.1973 23.4615 24.75 25.4378 24.75C26.6238 24.75 27.3629 24.5172 27.8446 24.2363C28.3106 23.9646 28.723 23.5398 29.0838 22.8243C29.8822 21.241 30.25 18.6186 30.25 14.6667Z" fill="#ABAFD1"/>
<g id="Union_2">
<path d="M12.375 15.125C12.375 15.8844 11.7594 16.5 11 16.5C10.2406 16.5 9.625 15.8844 9.625 15.125C9.625 14.3656 10.2406 13.75 11 13.75C11.7594 13.75 12.375 14.3656 12.375 15.125Z" fill="#767BFA"/>
<path d="M17.875 15.125C17.875 15.8844 17.2594 16.5 16.5 16.5C15.7406 16.5 15.125 15.8844 15.125 15.125C15.125 14.3656 15.7406 13.75 16.5 13.75C17.2594 13.75 17.875 14.3656 17.875 15.125Z" fill="#767BFA"/>
<path d="M22 16.5C22.7594 16.5 23.375 15.8844 23.375 15.125C23.375 14.3656 22.7594 13.75 22 13.75C21.2406 13.75 20.625 14.3656 20.625 15.125C20.625 15.8844 21.2406 16.5 22 16.5Z" fill="#767BFA"/>
</g>
</g>
</svg>
