<svg width="33" height="33" viewBox="0 0 33 33" fill="none" xmlns="http://www.w3.org/2000/svg">
<g id="Group 1">
<g id="Union">
<path fill-rule="evenodd" clip-rule="evenodd" d="M3.6 8.25C3.6 12.8063 6.82355 16.5 10.8 16.5C14.7764 16.5 18 12.8063 18 8.25C18 3.69365 14.7764 0 10.8 0C6.82355 0 3.6 3.69365 3.6 8.25ZM6 8.25C6 11.2876 8.14903 13.75 10.8 13.75C13.451 13.75 15.6 11.2876 15.6 8.25C15.6 5.21243 13.451 2.75 10.8 2.75C8.14903 2.75 6 5.21243 6 8.25Z" fill="#ABAFD1"/>
<path fill-rule="evenodd" clip-rule="evenodd" d="M0 26.125C0 31.7866 1.9062 33 10.8 33C19.6938 33 21.6 31.7866 21.6 26.125C21.6 20.4634 19.6938 19.25 10.8 19.25C1.9062 19.25 0 20.4634 0 26.125ZM2.4 26.125C2.4 27.4139 2.51587 28.1388 2.66513 28.5663C2.77579 28.8833 2.91391 29.0802 3.23037 29.2817C3.63358 29.5383 4.35389 29.8087 5.65452 29.9927C6.93588 30.1739 8.60576 30.25 10.8 30.25C12.9942 30.25 14.6641 30.1739 15.9455 29.9927C17.2461 29.8087 17.9664 29.5383 18.3696 29.2817C18.6861 29.0802 18.8242 28.8833 18.9349 28.5663C19.0841 28.1388 19.2 27.4139 19.2 26.125C19.2 24.8361 19.0841 24.1112 18.9349 23.6837C18.8242 23.3667 18.6861 23.1698 18.3696 22.9683C17.9664 22.7117 17.2461 22.4413 15.9455 22.2573C14.6641 22.0761 12.9942 22 10.8 22C8.60576 22 6.93588 22.0761 5.65452 22.2573C4.35389 22.4413 3.63358 22.7117 3.23037 22.9683C2.91391 23.1698 2.77579 23.3667 2.66513 23.6837C2.51587 24.1112 2.4 24.8361 2.4 26.125Z" fill="#ABAFD1"/>
</g>
<g id="Union_2">
<path d="M20.4 2.75C24.0194 2.75 26.4 6.2065 26.4 9.625C26.4 13.0435 24.0194 16.5 20.4 16.5C19.7373 16.5 19.2 15.8844 19.2 15.125C19.2 14.3656 19.7373 13.75 20.4 13.75C22.5406 13.75 24 11.7065 24 9.625C24 7.5435 22.5406 5.5 20.4 5.5C19.7373 5.5 19.2 4.88439 19.2 4.125C19.2 3.36561 19.7373 2.75 20.4 2.75Z" fill="#767BFA"/>
<path d="M22.8 17.875C22.1373 17.875 21.6 18.4906 21.6 19.25C21.6 20.0094 22.1373 20.625 22.8 20.625C26.1483 20.625 28.1462 20.8155 29.3093 21.3766C29.8355 21.6305 30.1146 21.9277 30.2854 22.2631C30.4687 22.6232 30.6 23.1714 30.6 24.0625C30.6 24.9486 30.4703 25.531 30.2933 25.9235C30.1255 26.2956 29.8804 26.5762 29.5103 26.8024C28.682 27.3086 27.319 27.5 25.2 27.5C24.5373 27.5 24 28.1156 24 28.875C24 29.6344 24.5373 30.25 25.2 30.25C27.281 30.25 29.218 30.0977 30.6397 29.2289C31.3946 28.7675 32.012 28.1028 32.4255 27.1858C32.8297 26.2894 33 25.2389 33 24.0625C33 22.8911 32.8314 21.8065 32.3584 20.8775C31.8729 19.9238 31.1395 19.2758 30.2407 18.8421C28.5538 18.0283 26.0517 17.875 22.8 17.875Z" fill="#767BFA"/>
</g>
</g>
</svg>
