<svg width="33" height="34" viewBox="0 0 33 34" fill="none" xmlns="http://www.w3.org/2000/svg">
<g id="Home">
<path id="Vector 15 (Stroke)" fill-rule="evenodd" clip-rule="evenodd" d="M17.4853 5.37685C16.8898 4.95433 16.1102 4.95433 15.5147 5.37685L5.69712 12.3422C5.23913 12.6671 4.96027 13.1907 4.93965 13.753C4.86838 15.6966 4.79284 19.1001 5.0003 21.5159C5.1568 23.3384 5.57336 25.7474 5.91172 27.5197C6.06885 28.3427 6.76414 28.9402 7.59051 28.9402H12.161C12.3557 28.9402 12.5135 28.7741 12.5135 28.5692V22.6318C12.5135 21.1971 13.6185 20.0342 14.9815 20.0342H18.4375C19.8005 20.0342 20.9054 21.1971 20.9054 22.6318V28.5692C20.9054 28.7741 21.0633 28.9402 21.258 28.9402H25.4095C26.2359 28.9402 26.9311 28.3427 27.0883 27.5197C27.4266 25.7474 27.8432 23.3384 27.9997 21.5159C28.2072 19.1001 28.1316 15.6966 28.0603 13.753C28.0397 13.1907 27.7609 12.6671 27.3029 12.3422L17.4853 5.37685ZM14.3323 3.53059C15.6425 2.60105 17.3575 2.60105 18.6677 3.53059L28.4852 10.4959C29.4879 11.2072 30.1268 12.3767 30.1742 13.6671C30.2453 15.6085 30.3276 19.1419 30.1065 21.7164C29.9389 23.6678 29.5021 26.178 29.1622 27.9583C28.8009 29.8507 27.2145 31.1668 25.4095 31.1668H21.258C19.895 31.1668 18.7901 30.0038 18.7901 28.5692V22.6318C18.7901 22.4268 18.6322 22.2607 18.4375 22.2607H14.9815C14.7867 22.2607 14.6289 22.4268 14.6289 22.6318V28.5692C14.6289 30.0038 13.524 31.1668 12.161 31.1668H7.59051C5.78546 31.1668 4.1991 29.8507 3.8378 27.9583C3.49789 26.178 3.06108 23.6678 2.8935 21.7164C2.67242 19.1419 2.75465 15.6085 2.82584 13.6671C2.87315 12.3767 3.51213 11.2072 4.51475 10.4959L14.3323 3.53059Z" fill="#ABAFD1"/>
</g>
</svg>
