<svg width="33" height="33" viewBox="0 0 33 33" fill="none" xmlns="http://www.w3.org/2000/svg">
<path fill-rule="evenodd" clip-rule="evenodd" d="M6.98077 8.1489C6.98077 6.03499 8.7171 4.32132 10.859 4.32132H16.5C17.0841 4.32132 17.5577 4.78868 17.5577 5.3652C17.5577 5.94173 17.0841 6.40909 16.5 6.40909H10.859C9.8854 6.40909 9.09615 7.18803 9.09615 8.1489V9.54075C9.09615 10.1173 8.62261 10.5846 8.03846 10.5846C7.45431 10.5846 6.98077 10.1173 6.98077 9.54075V8.1489ZM8.03846 22.4154C8.62261 22.4154 9.09615 22.8827 9.09615 23.4593V24.8511C9.09615 25.812 9.8854 26.5909 10.859 26.5909H16.5C17.0841 26.5909 17.5577 27.0583 17.5577 27.6348C17.5577 28.2113 17.0841 28.6787 16.5 28.6787H10.859C8.7171 28.6787 6.98077 26.965 6.98077 24.8511V23.4593C6.98077 22.8827 7.45431 22.4154 8.03846 22.4154Z" fill="white"/>
<path fill-rule="evenodd" clip-rule="evenodd" d="M17.5577 6.58099C17.5577 5.36925 18.7814 4.52863 19.9328 4.94948L26.984 7.52697C27.6756 7.77975 28.1346 8.43066 28.1346 9.15848V23.8415C28.1346 24.5693 27.6756 25.2202 26.9841 25.473L19.9328 28.0505C18.7814 28.4714 17.5577 27.6308 17.5577 26.419V6.58099ZM20.6675 2.99167C18.1345 2.0658 15.4423 3.91515 15.4423 6.58099V26.419C15.4423 29.0848 18.1345 30.9342 20.6675 30.0083L27.7188 27.4308C29.2401 26.8747 30.25 25.4427 30.25 23.8415V9.15848C30.25 7.55727 29.2401 6.12528 27.7187 5.56916L20.6675 2.99167Z" fill="white"/>
<path fill-rule="evenodd" clip-rule="evenodd" d="M7.37611 12.9782C6.96305 12.5705 6.29336 12.5705 5.8803 12.9782L3.05979 15.7619C2.64674 16.1695 2.64674 16.8305 3.05979 17.2381L5.8803 20.0218C6.29336 20.4295 6.96305 20.4295 7.37611 20.0218C7.78916 19.6142 7.78916 18.9532 7.37611 18.5456L6.36119 17.5439H12.2692C12.8534 17.5439 13.3269 17.0765 13.3269 16.5C13.3269 15.9235 12.8534 15.4561 12.2692 15.4561H6.36119L7.37611 14.4544C7.78916 14.0468 7.78916 13.3858 7.37611 12.9782Z" fill="white"/>
</svg>
