<svg width="33" height="33" viewBox="0 0 33 33" fill="none" xmlns="http://www.w3.org/2000/svg">
<g id="Play">
<path id="Union" fill-rule="evenodd" clip-rule="evenodd" d="M0 16.5C0 30.0877 2.91225 33 16.5 33C30.0877 33 33 30.0877 33 16.5C33 2.91225 30.0877 0 16.5 0C2.91225 0 0 2.91225 0 16.5ZM2.75 16.5C2.75 19.8342 2.93224 22.3258 3.35185 24.2138C3.76452 26.0707 4.36931 27.171 5.09914 27.9009C5.82896 28.6307 6.9293 29.2355 8.78615 29.6481C10.6742 30.0678 13.1658 30.25 16.5 30.25C19.8342 30.25 22.3258 30.0678 24.2138 29.6481C26.0707 29.2355 27.171 28.6307 27.9009 27.9009C28.6307 27.171 29.2355 26.0707 29.6481 24.2138C30.0678 22.3258 30.25 19.8342 30.25 16.5C30.25 13.1658 30.0678 10.6742 29.6481 8.78615C29.2355 6.9293 28.6307 5.82896 27.9009 5.09914C27.171 4.36931 26.0707 3.76452 24.2138 3.35185C22.3258 2.93224 19.8342 2.75 16.5 2.75C13.1658 2.75 10.6742 2.93224 8.78615 3.35185C6.9293 3.76452 5.82896 4.36931 5.09914 5.09914C4.36931 5.82896 3.76452 6.9293 3.35185 8.78615C2.93224 10.6742 2.75 13.1658 2.75 16.5Z" fill="#ABAFD1"/>
<path id="Union_2" fill-rule="evenodd" clip-rule="evenodd" d="M20.4489 21.4488C21.3143 20.9279 22.2112 20.3881 22.8675 19.8445C23.5945 19.2423 24.6037 18.1696 24.6037 16.5002C24.6037 14.8308 23.5945 13.758 22.8675 13.1558C22.2112 12.6122 21.3143 12.0724 20.4489 11.5515L17.9499 10.0461C17.0872 9.52605 16.189 8.9845 15.4052 8.66147C14.5533 8.31033 13.0548 7.88624 11.5501 8.79261C10.0892 9.67261 9.72536 11.1527 9.59867 12.0431C9.47805 12.8908 9.47836 13.954 9.47867 15.0032L9.47867 17.9971C9.47836 19.0464 9.47805 20.1095 9.59867 20.9573C9.72536 21.8476 10.0892 23.3277 11.5501 24.2077C13.0548 25.1141 14.5533 24.69 15.4052 24.3389C16.189 24.0158 17.0872 23.4743 17.9499 22.9542L20.4489 21.4488ZM18.8922 13.8242C20.8665 15.0135 21.8537 15.6082 21.8537 16.5002C21.8537 17.3922 20.8665 17.9868 18.8922 19.1761L16.671 20.5141C14.6967 21.7034 13.7095 22.2981 12.9691 21.8521C12.2287 21.4061 12.2287 20.2168 12.2287 17.8381V15.1622C12.2287 12.7836 12.2287 11.5942 12.9691 11.1482C13.7095 10.7022 14.6966 11.2969 16.671 12.4862L18.8922 13.8242Z" fill="#767BFA"/>
</g>
</svg>
