<svg width="33" height="33" viewBox="0 0 33 33" fill="none" xmlns="http://www.w3.org/2000/svg">
<g id="Settings" clip-path="url(#clip0_18_62)">
<path id="Union" fill-rule="evenodd" clip-rule="evenodd" d="M9.90964 5.02637C9.82901 5.42332 9.38424 5.65573 8.9762 5.52352C1.95899 3.24984 -3.24271 11.5775 2.38412 16.0019C2.71654 16.2633 2.71654 16.7367 2.38412 16.9981C-3.24271 21.4225 1.95899 29.7502 8.9762 27.4765C9.38424 27.3443 9.82901 27.5767 9.90964 27.9736C11.271 34.6755 21.729 34.6755 23.0904 27.9736C23.171 27.5767 23.6158 27.3443 24.0238 27.4765C31.041 29.7502 36.2427 21.4225 30.6159 16.9981C30.2835 16.7367 30.2835 16.2633 30.6159 16.0019C36.2427 11.5775 31.041 3.24984 24.0238 5.52352C23.6158 5.65573 23.171 5.42332 23.0904 5.02637C21.729 -1.67546 11.271 -1.67546 9.90964 5.02637ZM12.8558 5.53027C13.6088 1.82324 19.3912 1.82324 20.1442 5.53027C20.5614 7.58436 22.8762 8.81177 25.0217 8.1166C28.8936 6.86202 31.7848 11.4612 28.6658 13.9137C26.9376 15.2726 26.9376 17.7274 28.6658 19.0863C31.7848 21.5388 28.8936 26.138 25.0217 24.8834C22.8762 24.1882 20.5614 25.4156 20.1442 27.4697C19.3912 31.1768 13.6088 31.1768 12.8558 27.4697C12.4386 25.4156 10.1238 24.1882 7.97835 24.8834C4.10635 26.138 1.21519 21.5388 4.33417 19.0863C6.06242 17.7274 6.06242 15.2726 4.33417 13.9137C1.21519 11.4612 4.10635 6.86202 7.97835 8.1166C10.1238 8.81177 12.4386 7.58436 12.8558 5.53027Z" fill="#ABAFD1"/>
<path id="Union_2" fill-rule="evenodd" clip-rule="evenodd" d="M10.506 16.5C10.506 19.5376 13.1896 22 16.4999 22C19.8102 22 22.4937 19.5376 22.4937 16.5C22.4937 13.4624 19.8102 11 16.4999 11C13.1896 11 10.506 13.4624 10.506 16.5ZM13.503 16.5C13.503 18.0188 14.8447 19.25 16.4999 19.25C18.155 19.25 19.4968 18.0188 19.4968 16.5C19.4968 14.9812 18.155 13.75 16.4999 13.75C14.8447 13.75 13.503 14.9812 13.503 16.5Z" fill="#767BFA"/>
</g>
<defs>
<clipPath id="clip0_18_62">
<rect width="33" height="33" fill="white"/>
</clipPath>
</defs>
</svg>
