<svg width="33" height="33" viewBox="0 0 33 33" fill="none" xmlns="http://www.w3.org/2000/svg">
<g id="TV">
<path id="Union" d="M7.02013 0.760375C7.35974 0.0811613 8.18566 -0.194144 8.86488 0.145462L16.5 3.96296L24.135 0.145462C24.8143 -0.194144 25.6402 0.0811613 25.9798 0.760375C26.3194 1.43959 26.0441 2.26551 25.3649 2.60511L19.4804 5.54733C18.5491 5.51493 17.5568 5.50025 16.5 5.50025C15.4431 5.50025 14.4509 5.51493 13.5195 5.54733L7.63505 2.60511C6.95583 2.26551 6.68052 1.43959 7.02013 0.760375Z" fill="#767BFA"/>
<path id="Union_2" fill-rule="evenodd" clip-rule="evenodd" d="M0 19.2501C0 30.5731 2.91225 33 16.5 33C30.0877 33 33 30.5731 33 19.2501C33 7.92713 30.0877 5.50028 16.5 5.50028C2.91225 5.50028 0 7.92713 0 19.2501ZM2.75 19.2501C2.75 24.9457 3.56024 27.1296 4.9151 28.2586C5.6331 28.8569 6.76348 29.383 8.69033 29.7399C10.6242 30.098 13.1544 30.25 16.5 30.25C19.8456 30.25 22.3758 30.098 24.3097 29.7399C26.2365 29.383 27.3669 28.8569 28.0849 28.2586C29.4398 27.1296 30.25 24.9457 30.25 19.2501C30.25 13.5546 29.4398 11.3707 28.0849 10.2417C27.3669 9.64334 26.2365 9.11724 24.3097 8.76039C22.3758 8.40223 19.8456 8.25025 16.5 8.25025C13.1544 8.25025 10.6242 8.40223 8.69033 8.76039C6.76348 9.11724 5.6331 9.64334 4.9151 10.2417C3.56024 11.3707 2.75 13.5546 2.75 19.2501Z" fill="#ABAFD1"/>
</g>
</svg>
