<svg width="33" height="30" viewBox="0 0 33 30" fill="none" xmlns="http://www.w3.org/2000/svg">
<g id="Video">
<path id="Subtract" d="M24.1825 24.0408C24.9319 24.8162 25.6474 25.4468 26.3244 25.9226C27.2964 26.6056 28.2662 27.0241 29.1844 26.9991C30.1555 26.9727 31.0047 26.4471 31.6159 25.4377C32.1855 24.4969 32.4852 23.2435 32.6095 21.8474C33.1322 17.8538 33.13 11.5981 32.604 7.59903C32.4513 6.43861 32.1163 5.35515 31.5416 4.51631C30.9514 3.65481 30.1604 3.13068 29.2362 3.02159C27.7222 2.84287 25.9806 3.77757 24.1009 5.68761C24.3878 6.60508 24.5971 7.66024 24.744 8.87107C26.8062 6.50879 28.2364 5.91557 29.0333 6.00963C29.3975 6.05262 29.6541 6.23719 29.8526 6.52695C30.0666 6.83937 30.2613 7.34971 30.3616 8.11159C30.8451 11.7871 30.8449 17.7258 30.3618 21.3751L30.3559 21.4192L30.3521 21.4637C30.2559 22.5802 30.0435 23.2254 29.8372 23.5663C29.6662 23.8486 29.4635 23.9909 29.1375 23.9998C28.7585 24.01 28.186 23.8311 27.395 23.2752C26.6487 22.7508 25.7745 21.9378 24.7818 20.8017C24.6471 22.0303 24.4522 23.1041 24.1825 24.0408Z" fill="#767BFA"/>
<path id="Union" fill-rule="evenodd" clip-rule="evenodd" d="M0 15C0 27.3525 2.20929 30 12.5172 30C22.8252 30 25.0345 27.3525 25.0345 15C25.0345 2.6475 22.8252 0 12.5172 0C2.20929 0 0 2.6475 0 15ZM2.27586 15C2.27586 21.254 2.90289 23.6887 3.92405 24.9124C4.43677 25.5268 5.24575 26.0752 6.66346 26.4527C8.09587 26.8342 9.98701 27 12.5172 27C15.0475 27 16.9386 26.8342 18.371 26.4527C19.7887 26.0752 20.5977 25.5268 21.1104 24.9124C22.1316 23.6887 22.7586 21.254 22.7586 15C22.7586 8.74601 22.1316 6.31133 21.1104 5.08763C20.5977 4.47322 19.7887 3.92483 18.371 3.54727C16.9386 3.16578 15.0475 3 12.5172 3C9.98701 3 8.09587 3.16578 6.66346 3.54727C5.24575 3.92483 4.43677 4.47322 3.92405 5.08763C2.90289 6.31133 2.27586 8.74601 2.27586 15Z" fill="#ABAFD1"/>
</g>
</svg>
